<?xml version="1.0" encoding="utf-8"?>
<!-- Generator: Adobe Illustrator 22.1.0, SVG Export Plug-In . SVG Version: 6.00 Build 0)  -->
<svg version="1.1" id="Capa_1" xmlns="http://www.w3.org/2000/svg" xmlns:xlink="http://www.w3.org/1999/xlink" x="0px" y="0px"
	 viewBox="0 0 512 512" style="enable-background:new 0 0 512 512;" xml:space="preserve">
<style type="text/css">
	.st0{fill:#BFE7F6;}
	.st1{fill:#FDE1B1;}
	.st2{fill:#7F90B8;}
	.st3{fill:#2A4387;}
</style>
<circle class="st0" cx="256" cy="256" r="256"/>
<g>
	<path class="st1" d="M446.6,269.6c0-9.6-3.8-18.5-10.4-25c7.4-8.1,11.2-19,10.2-30.4c-1.9-20.2-20.1-36-41.5-36h-98.3
		c4.9-14.8,12.6-41.8,12.6-63.7c0-34.5-29.3-63.6-47.7-63.6c-16.6,0-28.4,9.3-28.9,9.7c-1.9,1.5-3,3.8-3,6.2v53.9l-45.8,99.3
		l-13.4,6.7c-2.7,1.4-4.4,4.1-4.4,7.1V377c0,2.1,0.8,4.1,2.3,5.6c6.8,6.8,17.7,11.1,25.5,13.4c9.4,3,19.9,4.8,27.9,4.8h146.1
		c17.3,0,32.5-11.6,36.1-27.8c1.8-8.3,0.7-16.7-3-23.9c11.8-5.9,19.7-18,19.7-31.9c0-5.6-1.3-11-3.7-15.9
		C438.7,295.5,446.6,283.3,446.6,269.6z"/>
	<path class="st2" d="M184,209.9h-79.6c-21.9,0-39.8,17.9-39.8,39.8V377c0,21.9,17.9,39.8,39.8,39.8h47.7
		c21.9,0,39.8-17.9,39.8-39.8V217.9C192,213.5,188.4,209.9,184,209.9z"/>
	<path class="st3" d="M152.2,416.8h-47.7c-21.9,0-39.8-17.8-39.8-39.8V249.7c0-21.9,17.8-39.8,39.8-39.8H184c4.4,0,8,3.6,8,8v3
		l1.9-1l45.8-99.3V66.7c0-2.4,1.1-4.7,3-6.2c0.5-0.4,12.3-9.7,28.8-9.7c18.4,0,47.7,29.1,47.7,63.6c0,21.8-7.8,48.9-12.7,63.7h98.3
		c21.4,0,39.6,15.8,41.5,36.1c1,11.3-2.8,22.2-10.2,30.4c6.6,6.6,10.4,15.5,10.4,25.1c0,13.8-7.9,25.9-19.6,31.8
		c2.4,4.9,3.7,10.3,3.7,15.9c0,13.8-7.9,25.9-19.7,31.8c3.6,7.3,4.7,15.6,2.9,23.9c-3.6,16.1-18.7,27.8-36.1,27.8H231.8
		c-11.1,0-28.9-3.6-42.1-10.4C184.1,405.8,169.4,416.8,152.2,416.8z M104.5,225.8c-13.2,0-23.9,10.7-23.9,23.9V377
		c0,13.2,10.7,23.9,23.9,23.9h47.7c13.2,0,23.9-10.7,23.9-23.9c0-3.2,1.9-6.1,4.9-7.4c3-1.2,6.4-0.5,8.7,1.7
		c7.5,7.5,29.2,13.6,42.1,13.6h146.1c9.9,0,18.6-6.4,20.5-15.3c1.6-7.1-0.5-14-5.8-19c-2.3-2.1-3.1-5.4-2.1-8.3c1-2.9,3.6-5,6.7-5.4
		c10-1.2,17.6-9.6,17.6-19.6c0-5.5-2.2-10.6-6.3-14.4c-2.3-2.1-3.1-5.4-2.1-8.3c1-2.9,3.6-5,6.7-5.4c10.1-1.2,17.6-9.6,17.6-19.6
		c0-7.4-4.2-14.2-10.9-17.6c-2.5-1.3-4.2-3.9-4.3-6.8c-0.1-2.9,1.3-5.6,3.8-7.1c7.8-4.8,12.2-13.4,11.3-22.5
		c-1.1-12.1-12.4-21.6-25.6-21.6H295.4c-2.6,0-5.1-1.3-6.6-3.4c-1.5-2.1-1.8-4.9-0.9-7.3c0.1-0.4,15.4-40.8,15.4-68.8
		c0-26-23.1-47.7-31.8-47.7c-6.9,0-12.6,2.5-15.9,4.3v51.4c0,1.1-0.3,2.3-0.7,3.3l-47.7,103.4c-0.8,1.6-2.1,3-3.7,3.8l-15.9,8
		c-2.5,1.2-5.4,1.1-7.7-0.4c-2.4-1.4-3.8-4-3.8-6.8v-8H104.5z"/>
	<path class="st3" d="M184,384.9c-4.4,0-8-3.6-8-8V233.8c0-4.4,3.6-8,8-8s8,3.6,8,8V377C192,381.4,188.4,384.9,184,384.9z"/>
</g>
</svg>
